<svg width="744" height="55" viewBox="0 0 744 55" fill="none" xmlns="http://www.w3.org/2000/svg">
<g filter="url(#filter0_d_0_6489)">
<path fill-rule="evenodd" clip-rule="evenodd" d="M-68 17H372H812V25L792 32L772 25L752 32L732 25L712 32L692 25L672 32L652 25L632 32L612 25L592 32L572 25L552 32L532 25L512 32L492 25L472 32L452 25L432 32L412 25L392 32L372 25L352 32L332 25L312 32L292 25L272 32L252 25L232 32L212 25L192 32L172 25L152 32L132 25L112 32L92 25L72 32L52 25L32 32L12 25L-8 32L-28 25L-48 32L-68 25V17Z" fill="white"/>
</g>
<defs>
<filter id="filter0_d_0_6489" x="-88" y="0" width="920" height="55" filterUnits="userSpaceOnUse" color-interpolation-filters="sRGB">
<feFlood flood-opacity="0" result="BackgroundImageFix"/>
<feColorMatrix in="SourceAlpha" type="matrix" values="0 0 0 0 0 0 0 0 0 0 0 0 0 0 0 0 0 0 127 0" result="hardAlpha"/>
<feOffset dy="3"/>
<feGaussianBlur stdDeviation="10"/>
<feComposite in2="hardAlpha" operator="out"/>
<feColorMatrix type="matrix" values="0 0 0 0 0 0 0 0 0 0 0 0 0 0 0 0 0 0 0.04 0"/>
<feBlend mode="normal" in2="BackgroundImageFix" result="effect1_dropShadow_0_6489"/>
<feBlend mode="normal" in="SourceGraphic" in2="effect1_dropShadow_0_6489" result="shape"/>
</filter>
</defs>
</svg>
