<svg width="1920" height="55" viewBox="0 0 1920 55" fill="none" xmlns="http://www.w3.org/2000/svg">
<g filter="url(#filter0_d_0_6590)">
<path fill-rule="evenodd" clip-rule="evenodd" d="M-360 32H80H520H960H1400H1840H2280V24L2260 17L2240 24L2220 17L2200 24L2180 17L2160 24L2140 17L2120 24L2100 17L2080 24L2060 17L2040 24L2020 17L2000 24L1980 17L1960 24L1940 17L1920 24L1900 17L1880 24L1860 17L1840 24L1820 17L1800 24L1780 17L1760 24L1740 17L1720 24L1700 17L1680 24L1660 17L1640 24L1620 17L1600 24L1580 17L1560 24L1540 17L1520 24L1500 17L1480 24L1460 17L1440 24L1420 17L1400 24L1380 17L1360 24L1340 17L1320 24L1300 17L1280 24L1260 17L1240 24L1220 17L1200 24L1180 17L1160 24L1140 17L1120 24L1100 17L1080 24L1060 17L1040 24L1020 17L1000 24L980 17L960 24L940 17L920 24L900 17L880 24L860 17L840 24L820 17L800 24L780 17L760 24L740 17L720 24L700 17L680 24L660 17L640 24L620 17L600 24L580 17L560 24L540 17L520 24L500 17L480 24L460 17L440 24L420 17L400 24L380 17L360 24L340 17L320 24L300 17L280 24L260 17L240 24L220 17L200 24L180 17L160 24L140 17L120 24L100 17L80 24L60 17L40 24L20 17L0 24L-20 17L-40 24L-60 17L-80 24L-100 17L-120 24L-140 17L-160 24L-180 17L-200 24L-220 17L-240 24L-260 17L-280 24L-300 17L-320 24L-340 17L-360 24V32Z" fill="white"/>
</g>
<defs>
<filter id="filter0_d_0_6590" x="-380" y="0" width="2680" height="55" filterUnits="userSpaceOnUse" color-interpolation-filters="sRGB">
<feFlood flood-opacity="0" result="BackgroundImageFix"/>
<feColorMatrix in="SourceAlpha" type="matrix" values="0 0 0 0 0 0 0 0 0 0 0 0 0 0 0 0 0 0 127 0" result="hardAlpha"/>
<feOffset dy="3"/>
<feGaussianBlur stdDeviation="10"/>
<feComposite in2="hardAlpha" operator="out"/>
<feColorMatrix type="matrix" values="0 0 0 0 0 0 0 0 0 0 0 0 0 0 0 0 0 0 0.04 0"/>
<feBlend mode="normal" in2="BackgroundImageFix" result="effect1_dropShadow_0_6590"/>
<feBlend mode="normal" in="SourceGraphic" in2="effect1_dropShadow_0_6590" result="shape"/>
</filter>
</defs>
</svg>
