<svg width="1920" height="1040" viewBox="0 0 1920 1040" fill="none" xmlns="http://www.w3.org/2000/svg">
<rect width="1920" height="1040" fill="white"/>
<line x1="4.37114e-08" y1="5.8457" x2="1920" y2="5.84587" stroke="#F2F2F2"/>
<line x1="1.99647e-08" y1="42.5352" x2="1920" y2="42.5355" stroke="#F2F2F2"/>
<line x1="5.15219e-08" y1="79.2246" x2="1920" y2="79.2248" stroke="#F2F2F2"/>
<line x1="5.15219e-08" y1="115.914" x2="1920" y2="115.914" stroke="#F2F2F2"/>
<line x1="5.15219e-08" y1="152.604" x2="1920" y2="152.604" stroke="#F2F2F2"/>
<line x1="5.15219e-08" y1="189.293" x2="1920" y2="189.293" stroke="#F2F2F2"/>
<line x1="5.15219e-08" y1="225.982" x2="1920" y2="225.983" stroke="#F2F2F2"/>
<line x1="5.15219e-08" y1="262.672" x2="1920" y2="262.672" stroke="#F2F2F2"/>
<line x1="1.06479e-07" y1="299.361" x2="1920" y2="299.361" stroke="#F2F2F2"/>
<line x1="1.06479e-07" y1="336.051" x2="1920" y2="336.051" stroke="#F2F2F2"/>
<line x1="1.06479e-07" y1="372.742" x2="1920" y2="372.742" stroke="#F2F2F2"/>
<line x1="1.06479e-07" y1="409.432" x2="1920" y2="409.432" stroke="#F2F2F2"/>
<line x1="1.06479e-07" y1="446.121" x2="1920" y2="446.121" stroke="#F2F2F2"/>
<line x1="1.06479e-07" y1="482.811" x2="1920" y2="482.811" stroke="#F2F2F2"/>
<line x1="1.06479e-07" y1="519.5" x2="1920" y2="519.5" stroke="#F2F2F2"/>
<line x1="1.06479e-07" y1="556.189" x2="1920" y2="556.19" stroke="#F2F2F2"/>
<line x1="1.06479e-07" y1="592.879" x2="1920" y2="592.879" stroke="#F2F2F2"/>
<line x1="1.06479e-07" y1="629.568" x2="1920" y2="629.568" stroke="#F2F2F2"/>
<line x1="1.06479e-07" y1="666.258" x2="1920" y2="666.258" stroke="#F2F2F2"/>
<line x1="1.06479e-07" y1="702.947" x2="1920" y2="702.947" stroke="#F2F2F2"/>
<line x1="1.06479e-07" y1="739.637" x2="1920" y2="739.637" stroke="#F2F2F2"/>
<line x1="1.06479e-07" y1="776.328" x2="1920" y2="776.328" stroke="#F2F2F2"/>
<line x1="1.06479e-07" y1="813.018" x2="1920" y2="813.018" stroke="#F2F2F2"/>
<line x1="1.06479e-07" y1="849.707" x2="1920" y2="849.707" stroke="#F2F2F2"/>
<line x1="1.06479e-07" y1="886.396" x2="1920" y2="886.397" stroke="#F2F2F2"/>
<line x1="1.06479e-07" y1="923.086" x2="1920" y2="923.086" stroke="#F2F2F2"/>
<line x1="1.06479e-07" y1="959.775" x2="1920" y2="959.775" stroke="#F2F2F2"/>
<line x1="1.06479e-07" y1="996.465" x2="1920" y2="996.465" stroke="#F2F2F2"/>
<line x1="1.06479e-07" y1="1033.15" x2="1920" y2="1033.15" stroke="#F2F2F2"/>
</svg>
