<svg width="1920" height="55" viewBox="0 0 1920 55" fill="none" xmlns="http://www.w3.org/2000/svg">
<g filter="url(#filter0_d_0_6527)">
<path fill-rule="evenodd" clip-rule="evenodd" d="M-360 17H80H520H960H1400H1840H2280V25L2260 32L2240 25L2220 32L2200 25L2180 32L2160 25L2140 32L2120 25L2100 32L2080 25L2060 32L2040 25L2020 32L2000 25L1980 32L1960 25L1940 32L1920 25L1900 32L1880 25L1860 32L1840 25L1820 32L1800 25L1780 32L1760 25L1740 32L1720 25L1700 32L1680 25L1660 32L1640 25L1620 32L1600 25L1580 32L1560 25L1540 32L1520 25L1500 32L1480 25L1460 32L1440 25L1420 32L1400 25L1380 32L1360 25L1340 32L1320 25L1300 32L1280 25L1260 32L1240 25L1220 32L1200 25L1180 32L1160 25L1140 32L1120 25L1100 32L1080 25L1060 32L1040 25L1020 32L1000 25L980 32L960 25L940 32L920 25L900 32L880 25L860 32L840 25L820 32L800 25L780 32L760 25L740 32L720 25L700 32L680 25L660 32L640 25L620 32L600 25L580 32L560 25L540 32L520 25L500 32L480 25L460 32L440 25L420 32L400 25L380 32L360 25L340 32L320 25L300 32L280 25L260 32L240 25L220 32L200 25L180 32L160 25L140 32L120 25L100 32L80 25L60 32L40 25L20 32L0 25L-20 32L-40 25L-60 32L-80 25L-100 32L-120 25L-140 32L-160 25L-180 32L-200 25L-220 32L-240 25L-260 32L-280 25L-300 32L-320 25L-340 32L-360 25V17Z" fill="white"/>
</g>
<defs>
<filter id="filter0_d_0_6527" x="-380" y="0" width="2680" height="55" filterUnits="userSpaceOnUse" color-interpolation-filters="sRGB">
<feFlood flood-opacity="0" result="BackgroundImageFix"/>
<feColorMatrix in="SourceAlpha" type="matrix" values="0 0 0 0 0 0 0 0 0 0 0 0 0 0 0 0 0 0 127 0" result="hardAlpha"/>
<feOffset dy="3"/>
<feGaussianBlur stdDeviation="10"/>
<feComposite in2="hardAlpha" operator="out"/>
<feColorMatrix type="matrix" values="0 0 0 0 0 0 0 0 0 0 0 0 0 0 0 0 0 0 0.04 0"/>
<feBlend mode="normal" in2="BackgroundImageFix" result="effect1_dropShadow_0_6527"/>
<feBlend mode="normal" in="SourceGraphic" in2="effect1_dropShadow_0_6527" result="shape"/>
</filter>
</defs>
</svg>
